<svg width="14" height="16" viewBox="0 0 14 16" fill="none" xmlns="http://www.w3.org/2000/svg">
<path d="M8.58328 15.3333C8.40297 15.3333 8.22753 15.2748 8.08328 15.1666L4.74995 12.625C4.64798 12.5465 4.56558 12.4455 4.50919 12.3298C4.45281 12.2141 4.42397 12.087 4.42494 11.9583V9.23331L0.424945 1.54998C0.359069 1.42283 0.327074 1.28084 0.332045 1.13772C0.337017 0.994597 0.378787 0.855172 0.453327 0.732894C0.527866 0.610615 0.63266 0.509609 0.757599 0.439618C0.882538 0.369628 1.0234 0.333017 1.16661 0.333315H12.8333C12.9779 0.33334 13.12 0.371001 13.2457 0.442595C13.3713 0.514189 13.4762 0.61725 13.5499 0.741648C13.6231 0.868331 13.6616 1.01203 13.6616 1.15831C13.6616 1.3046 13.6231 1.4483 13.5499 1.57498L9.38328 9.24998V14.5C9.38436 14.6553 9.34202 14.8078 9.26103 14.9403C9.18005 15.0728 9.06364 15.1801 8.92494 15.25C8.81828 15.3017 8.7018 15.3302 8.58328 15.3333ZM6.08328 11.55L7.74994 12.825V9.03331C7.74942 8.90634 7.77793 8.78092 7.83328 8.66665L11.4166 1.99998H2.53328L5.97495 8.66665C6.03571 8.78526 6.06715 8.91671 6.06661 9.04998L6.08328 11.55Z" fill="#303030"/>
</svg>
