<svg width="14" height="14" viewBox="0 0 14 14" fill="none" xmlns="http://www.w3.org/2000/svg">
<path d="M13 8.5H9.775L10.3225 5.5H13C13.1989 5.5 13.3897 5.42098 13.5303 5.28033C13.671 5.13968 13.75 4.94891 13.75 4.75C13.75 4.55109 13.671 4.36032 13.5303 4.21967C13.3897 4.07902 13.1989 4 13 4H10.5925L11.11 1.1425C11.1304 1.04223 11.1302 0.938834 11.1092 0.838678C11.0881 0.738522 11.0469 0.643724 10.9879 0.560119C10.9288 0.476515 10.8533 0.405872 10.766 0.352539C10.6787 0.299205 10.5813 0.26431 10.48 0.25C10.3792 0.225998 10.2746 0.223125 10.1727 0.241561C10.0708 0.259997 9.97378 0.299344 9.88782 0.35712C9.80186 0.414897 9.7288 0.489852 9.67324 0.577262C9.61768 0.664672 9.58082 0.762643 9.565 0.865L9.0025 4H6.0925L6.61 1.1425C6.63045 1.04223 6.63016 0.938834 6.60915 0.838678C6.58815 0.738522 6.54687 0.643724 6.48785 0.560119C6.42884 0.476515 6.35334 0.405872 6.266 0.352539C6.17866 0.299205 6.08133 0.26431 5.98 0.25C5.87925 0.225998 5.77461 0.223125 5.67269 0.241561C5.57078 0.259997 5.47378 0.299344 5.38782 0.35712C5.30186 0.414897 5.2288 0.489852 5.17324 0.577262C5.11768 0.664672 5.08082 0.762643 5.065 0.865L4.5025 4H1C0.801088 4 0.610322 4.07902 0.46967 4.21967C0.329018 4.36032 0.25 4.55109 0.25 4.75C0.25 4.94891 0.329018 5.13968 0.46967 5.28033C0.610322 5.42098 0.801088 5.5 1 5.5H4.225L3.6775 8.5H1C0.801088 8.5 0.610322 8.57902 0.46967 8.71967C0.329018 8.86032 0.25 9.05109 0.25 9.25C0.25 9.44891 0.329018 9.63968 0.46967 9.78033C0.610322 9.92098 0.801088 10 1 10H3.4075L2.89 12.8575C2.86955 12.9578 2.86984 13.0612 2.89085 13.1613C2.91185 13.2615 2.95313 13.3563 3.01215 13.4399C3.07116 13.5235 3.14666 13.5941 3.234 13.6475C3.32134 13.7008 3.41867 13.7357 3.52 13.75C3.62075 13.774 3.72539 13.7769 3.82731 13.7584C3.92922 13.74 4.02622 13.7007 4.11218 13.6429C4.19814 13.5851 4.2712 13.5101 4.32676 13.4227C4.38232 13.3353 4.41918 13.2374 4.435 13.135L4.9975 10H7.9075L7.39 12.8575C7.36955 12.9578 7.36984 13.0612 7.39085 13.1613C7.41185 13.2615 7.45313 13.3563 7.51215 13.4399C7.57116 13.5235 7.64666 13.5941 7.734 13.6475C7.82134 13.7008 7.91867 13.7357 8.02 13.75C8.12075 13.774 8.22539 13.7769 8.32731 13.7584C8.42922 13.74 8.52622 13.7007 8.61218 13.6429C8.69814 13.5851 8.7712 13.5101 8.82676 13.4227C8.88232 13.3353 8.91918 13.2374 8.935 13.135L9.4975 10H13C13.1989 10 13.3897 9.92098 13.5303 9.78033C13.671 9.63968 13.75 9.44891 13.75 9.25C13.75 9.05109 13.671 8.86032 13.5303 8.71967C13.3897 8.57902 13.1989 8.5 13 8.5ZM5.275 8.5L5.8225 5.5H8.725L8.1775 8.5H5.275Z" fill="#696969"/>
</svg>
