<svg width="28" height="28" viewBox="0 0 28 28" fill="none" xmlns="http://www.w3.org/2000/svg">
<path d="M13.9963 9.43922C11.485 9.43922 9.43563 11.4887 9.43563 14C9.43563 16.5113 11.485 18.5608 13.9963 18.5608C16.5076 18.5608 18.557 16.5113 18.557 14C18.557 11.4887 16.5076 9.43922 13.9963 9.43922ZM27.6749 14C27.6749 12.1114 27.692 10.2398 27.586 8.35463C27.4799 6.16491 26.9804 4.22154 25.3792 2.62031C23.7746 1.01566 21.8347 0.519556 19.645 0.413492C17.7564 0.307427 15.8849 0.324535 13.9997 0.324535C12.1111 0.324535 10.2397 0.307427 8.35448 0.413492C6.16481 0.519556 4.22147 1.01908 2.62027 2.62031C1.01565 4.22496 0.519552 6.16491 0.41349 8.35463C0.307428 10.2433 0.324535 12.1148 0.324535 14C0.324535 15.8852 0.307428 17.7601 0.41349 19.6453C0.519552 21.8351 1.01907 23.7784 2.62027 25.3797C4.22489 26.9843 6.16481 27.4804 8.35448 27.5865C10.2431 27.6925 12.1146 27.6754 13.9997 27.6754C15.8883 27.6754 17.7598 27.6925 19.645 27.5865C21.8347 27.4804 23.778 26.9809 25.3792 25.3797C26.9838 23.775 27.4799 21.8351 27.586 19.6453C27.6955 17.7601 27.6749 15.8886 27.6749 14ZM13.9963 21.0173C10.1131 21.0173 6.97909 17.8833 6.97909 14C6.97909 10.1167 10.1131 6.98264 13.9963 6.98264C17.8796 6.98264 21.0135 10.1167 21.0135 14C21.0135 17.8833 17.8796 21.0173 13.9963 21.0173ZM21.3009 8.3341C20.3943 8.3341 19.6621 7.60191 19.6621 6.69524C19.6621 5.78856 20.3943 5.05637 21.3009 5.05637C22.2076 5.05637 22.9398 5.78856 22.9398 6.69524C22.94 6.91053 22.8978 7.12376 22.8156 7.32272C22.7333 7.52168 22.6126 7.70245 22.4604 7.85469C22.3081 8.00693 22.1274 8.12764 21.9284 8.2099C21.7295 8.29217 21.5162 8.33437 21.3009 8.3341Z" fill="#FF0000"/>
</svg>
