<svg width="16" height="16" viewBox="0 0 16 16" fill="none" xmlns="http://www.w3.org/2000/svg">
<path d="M7.99803 5.56758C6.65868 5.56758 5.56567 6.66061 5.56567 7.99999C5.56567 9.33937 6.65868 10.4324 7.99803 10.4324C9.33738 10.4324 10.4304 9.33937 10.4304 7.99999C10.4304 6.66061 9.33738 5.56758 7.99803 5.56758ZM15.2933 7.99999C15.2933 6.99272 15.3024 5.99458 15.2459 4.98913C15.1893 3.82128 14.9229 2.78482 14.0689 1.93083C13.2131 1.07502 12.1785 0.810426 11.0107 0.753858C10.0034 0.697291 9.00528 0.706414 7.99985 0.706414C6.9926 0.706414 5.99448 0.697291 4.98905 0.753858C3.82123 0.810426 2.78478 1.07684 1.93081 1.93083C1.07501 2.78664 0.810424 3.82128 0.753857 4.98913C0.697291 5.9964 0.706414 6.99455 0.706414 7.99999C0.706414 9.00543 0.697291 10.0054 0.753857 11.0108C0.810424 12.1787 1.07683 13.2152 1.93081 14.0691C2.7866 14.925 3.82123 15.1896 4.98905 15.2461C5.9963 15.3027 6.99443 15.2936 7.99985 15.2936C9.0071 15.2936 10.0052 15.3027 11.0107 15.2461C12.1785 15.1896 13.2149 14.9231 14.0689 14.0691C14.9247 13.2133 15.1893 12.1787 15.2459 11.0108C15.3042 10.0054 15.2933 9.00726 15.2933 7.99999ZM7.99803 11.7426C5.92696 11.7426 4.25551 10.0711 4.25551 7.99999C4.25551 5.92888 5.92696 4.2574 7.99803 4.2574C10.0691 4.2574 11.7405 5.92888 11.7405 7.99999C11.7405 10.0711 10.0691 11.7426 7.99803 11.7426ZM11.8938 4.97818C11.4103 4.97818 11.0198 4.58768 11.0198 4.10412C11.0198 3.62056 11.4103 3.23006 11.8938 3.23006C12.3774 3.23006 12.7679 3.62056 12.7679 4.10412C12.768 4.21895 12.7455 4.33267 12.7016 4.43878C12.6578 4.54489 12.5934 4.64131 12.5122 4.7225C12.431 4.80369 12.3346 4.86807 12.2285 4.91194C12.1224 4.95582 12.0086 4.97833 11.8938 4.97818Z" fill="#BDBDBD"/>
</svg>
