<svg width="18" height="18" viewBox="0 0 18 18" fill="none" xmlns="http://www.w3.org/2000/svg">
<path d="M3 6C3.41421 6 3.75 5.66421 3.75 5.25C3.75 4.83579 3.41421 4.5 3 4.5C2.58579 4.5 2.25 4.83579 2.25 5.25C2.25 5.66421 2.58579 6 3 6Z" fill="#4A4A4A"/>
<path d="M3 9.75C3.41421 9.75 3.75 9.41421 3.75 9C3.75 8.58579 3.41421 8.25 3 8.25C2.58579 8.25 2.25 8.58579 2.25 9C2.25 9.41421 2.58579 9.75 3 9.75Z" fill="#4A4A4A"/>
<path d="M3 13.5C3.41421 13.5 3.75 13.1642 3.75 12.75C3.75 12.3358 3.41421 12 3 12C2.58579 12 2.25 12.3358 2.25 12.75C2.25 13.1642 2.58579 13.5 3 13.5Z" fill="#4A4A4A"/>
<path d="M15.045 8.25H5.955C5.56564 8.25 5.25 8.56564 5.25 8.955V9.045C5.25 9.43436 5.56564 9.75 5.955 9.75H15.045C15.4344 9.75 15.75 9.43436 15.75 9.045V8.955C15.75 8.56564 15.4344 8.25 15.045 8.25Z" fill="#696969"/>
<path d="M15.045 12H5.955C5.56564 12 5.25 12.3156 5.25 12.705V12.795C5.25 13.1844 5.56564 13.5 5.955 13.5H15.045C15.4344 13.5 15.75 13.1844 15.75 12.795V12.705C15.75 12.3156 15.4344 12 15.045 12Z" fill="#696969"/>
<path d="M15.045 4.5H5.955C5.56564 4.5 5.25 4.81564 5.25 5.205V5.295C5.25 5.68436 5.56564 6 5.955 6H15.045C15.4344 6 15.75 5.68436 15.75 5.295V5.205C15.75 4.81564 15.4344 4.5 15.045 4.5Z" fill="#696969"/>
</svg>
