<svg width="18" height="18" viewBox="0 0 18 18" fill="none" xmlns="http://www.w3.org/2000/svg">
<path d="M10.8749 7.7475H15.8774C16.0425 7.7475 16.2009 7.68191 16.3176 7.56517C16.4344 7.44843 16.4999 7.2901 16.4999 7.125C16.4999 5.63316 15.9073 4.20242 14.8524 3.14752C13.7975 2.09263 12.3668 1.5 10.8749 1.5C10.7098 1.5 10.5515 1.56558 10.4348 1.68233C10.318 1.79907 10.2524 1.9574 10.2524 2.1225V7.125C10.2524 7.2901 10.318 7.44843 10.4348 7.56517C10.5515 7.68191 10.7098 7.7475 10.8749 7.7475Z" fill="#696969"/>
<path d="M15.8099 9H9.69744C9.60782 9 9.51907 8.98235 9.43626 8.94805C9.35346 8.91375 9.27822 8.86348 9.21484 8.8001C9.15147 8.73672 9.10119 8.66149 9.0669 8.57868C9.0326 8.49588 9.01494 8.40713 9.01494 8.3175V2.19C9.01552 2.09272 8.99552 1.99641 8.95625 1.9074C8.91698 1.81839 8.85934 1.7387 8.7871 1.67354C8.71486 1.60838 8.62965 1.55923 8.53708 1.52933C8.4445 1.49942 8.34665 1.48942 8.24994 1.5C6.84201 1.6495 5.50514 2.19448 4.39395 3.07192C3.28276 3.94935 2.44263 5.1234 1.97072 6.4583C1.49882 7.79319 1.4144 9.2344 1.72725 10.6153C2.04009 11.9961 2.73741 13.2602 3.73857 14.2614C4.73973 15.2625 6.00383 15.9599 7.38469 16.2727C8.76555 16.5855 10.2068 16.5011 11.5416 16.0292C12.8765 15.5573 14.0506 14.7172 14.928 13.606C15.8055 12.4948 16.3504 11.1579 16.4999 9.75C16.5083 9.65447 16.4966 9.55826 16.4657 9.46749C16.4348 9.37672 16.3853 9.2934 16.3204 9.22283C16.2554 9.15226 16.1765 9.096 16.0886 9.05763C16.0007 9.01926 15.9058 8.99964 15.8099 9Z" fill="#4A4A4A"/>
</svg>
