<svg width="14" height="16" viewBox="0 0 14 16" fill="none" xmlns="http://www.w3.org/2000/svg">
<path d="M11.5 2.75V2C11.5 1.60218 11.342 1.22064 11.0607 0.93934C10.7794 0.658035 10.3978 0.5 10 0.5H4C3.60218 0.5 3.22064 0.658035 2.93934 0.93934C2.65804 1.22064 2.5 1.60218 2.5 2V2.75C1.90326 2.75 1.33097 2.98705 0.90901 3.40901C0.487053 3.83097 0.25 4.40326 0.25 5V13.25C0.25 13.8467 0.487053 14.419 0.90901 14.841C1.33097 15.2629 1.90326 15.5 2.5 15.5H11.5C12.0967 15.5 12.669 15.2629 13.091 14.841C13.5129 14.419 13.75 13.8467 13.75 13.25V5C13.75 4.40326 13.5129 3.83097 13.091 3.40901C12.669 2.98705 12.0967 2.75 11.5 2.75ZM4 2H10V5H4V2ZM12.25 13.25C12.25 13.4489 12.171 13.6397 12.0303 13.7803C11.8897 13.921 11.6989 14 11.5 14H2.5C2.30109 14 2.11032 13.921 1.96967 13.7803C1.82902 13.6397 1.75 13.4489 1.75 13.25V5C1.75 4.80109 1.82902 4.61032 1.96967 4.46967C2.11032 4.32902 2.30109 4.25 2.5 4.25V5C2.5 5.39782 2.65804 5.77936 2.93934 6.06066C3.22064 6.34196 3.60218 6.5 4 6.5H10C10.3978 6.5 10.7794 6.34196 11.0607 6.06066C11.342 5.77936 11.5 5.39782 11.5 5V4.25C11.6989 4.25 11.8897 4.32902 12.0303 4.46967C12.171 4.61032 12.25 4.80109 12.25 5V13.25Z" fill="#696969"/>
</svg>
