<svg width="16" height="16" viewBox="0 0 16 16" fill="none" xmlns="http://www.w3.org/2000/svg">
<path fill-rule="evenodd" clip-rule="evenodd" d="M15.3333 7.99999C15.3333 12.0498 12.0498 15.3333 7.99999 15.3333C3.95016 15.3333 0.666656 12.0498 0.666656 7.99999C0.666656 3.95016 3.95016 0.666656 7.99999 0.666656C12.0498 0.666656 15.3333 3.95016 15.3333 7.99999ZM8.26277 6.08049C7.5496 6.37688 6.12388 6.99105 3.98621 7.92238C3.6391 8.06049 3.45699 8.19555 3.44049 8.32755C3.41238 8.55121 3.69227 8.63921 4.07238 8.75838C4.12432 8.77488 4.1781 8.79138 4.2331 8.80971C4.60771 8.93132 5.11127 9.07371 5.37282 9.07921C5.61055 9.0841 5.87577 8.98632 6.16849 8.78588C8.1656 7.43716 9.19655 6.75577 9.26132 6.7411C9.30716 6.73071 9.37071 6.71727 9.41349 6.75577C9.45627 6.79366 9.45199 6.86577 9.44771 6.88532C9.4196 7.00327 8.32327 8.02321 7.75493 8.55121C7.57771 8.7156 7.45243 8.83232 7.42677 8.85921C7.36932 8.91849 7.31066 8.97532 7.25443 9.02971C6.9061 9.3646 6.64577 9.61638 7.2691 10.027C7.56855 10.2244 7.8081 10.3876 8.04705 10.5502C8.30799 10.728 8.56832 10.9052 8.90566 11.1264C8.99121 11.1827 9.0731 11.2407 9.15316 11.2975C9.45688 11.5145 9.73005 11.7088 10.0674 11.6783C10.2629 11.6599 10.4658 11.476 10.5685 10.9266C10.8111 9.62738 11.289 6.81382 11.3996 5.65393C11.4063 5.55763 11.4022 5.46088 11.3874 5.36549C11.3785 5.28845 11.341 5.21756 11.2823 5.16688C11.1949 5.09538 11.0592 5.0801 10.9981 5.08132C10.7225 5.08621 10.2996 5.23349 8.26277 6.08049Z" fill="#BDBDBD"/>
</svg>
