<svg width="236" height="40" viewBox="0 0 236 40" fill="none" xmlns="http://www.w3.org/2000/svg">
<path d="M0 10.247C0 4.58776 4.58776 0 10.247 0H29.0333C34.6926 0 39.2804 4.58776 39.2804 10.247V29.0333C39.2804 34.6926 34.6926 39.2804 29.0333 39.2804H10.247C4.58776 39.2804 0 34.6926 0 29.0333V10.247Z" fill="#FF0000"/>
<path d="M14.1604 30.7411H10.247L17.3722 10.247H21.8983L29.0333 30.7411H25.1199L19.7143 14.4499H19.5562L14.1604 30.7411ZM14.2889 22.7056H24.9618V25.6877H14.2889V22.7056Z" fill="#F5F5F5"/>
<path d="M61.7169 30.7412H57.1538L65.4619 7.14191H70.7395L79.0592 30.7412H74.496L68.1929 11.9816H68.0085L61.7169 30.7412ZM61.8667 21.4881H74.3117V24.922H61.8667V21.4881Z" fill="#BDBDBD"/>
<path d="M94.14 20.163V23.5853H84.7141V20.163H94.14ZM86.0047 13.0417V30.7412H81.9832V13.0417H86.0047ZM96.871 13.0417V30.7412H92.861V13.0417H96.871Z" fill="#BDBDBD"/>
<path d="M99.1093 16.4641V13.0417H114.596V16.4641H108.869V30.7412H104.836V16.4641H99.1093Z" fill="#BDBDBD"/>
<path d="M121.939 25.0949L129.026 13.0417H133.313V30.7412H129.28V18.6765L122.216 30.7412H117.918V13.0417H121.939V25.0949Z" fill="#BDBDBD"/>
<path d="M149.753 20.163V23.5853H140.327V20.163H149.753ZM141.618 13.0417V30.7412H137.596V13.0417H141.618ZM152.484 13.0417V30.7412H148.474V13.0417H152.484Z" fill="#BDBDBD"/>
<path d="M164.425 31.0869C162.697 31.0869 161.199 30.7066 159.931 29.9461C158.663 29.1856 157.68 28.1216 156.981 26.7542C156.29 25.3868 155.944 23.7889 155.944 21.9606C155.944 20.1323 156.29 18.5305 156.981 17.1555C157.68 15.7804 158.663 14.7126 159.931 13.952C161.199 13.1915 162.697 12.8113 164.425 12.8113C166.153 12.8113 167.651 13.1915 168.919 13.952C170.187 14.7126 171.166 15.7804 171.857 17.1555C172.556 18.5305 172.906 20.1323 172.906 21.9606C172.906 23.7889 172.556 25.3868 171.857 26.7542C171.166 28.1216 170.187 29.1856 168.919 29.9461C167.651 30.7066 166.153 31.0869 164.425 31.0869ZM164.448 27.7452C165.385 27.7452 166.169 27.4878 166.799 26.9731C167.429 26.4507 167.897 25.7517 168.205 24.8759C168.52 24.0002 168.677 23.0245 168.677 21.9491C168.677 20.8659 168.52 19.8864 168.205 19.0107C167.897 18.1272 167.429 17.4243 166.799 16.902C166.169 16.3796 165.385 16.1184 164.448 16.1184C163.488 16.1184 162.689 16.3796 162.051 16.902C161.421 17.4243 160.949 18.1272 160.634 19.0107C160.327 19.8864 160.173 20.8659 160.173 21.9491C160.173 23.0245 160.327 24.0002 160.634 24.8759C160.949 25.7517 161.421 26.4507 162.051 26.9731C162.689 27.4878 163.488 27.7452 164.448 27.7452Z" fill="#BDBDBD"/>
<path d="M176.446 37.3785V13.0417H180.549V15.9686H180.791C181.006 15.5384 181.309 15.0813 181.701 14.5973C182.093 14.1057 182.623 13.687 183.291 13.3413C183.96 12.9879 184.812 12.8113 185.849 12.8113C187.217 12.8113 188.45 13.1608 189.548 13.8599C190.654 14.5512 191.53 15.5768 192.175 16.9365C192.828 18.2886 193.155 19.9479 193.155 21.9145C193.155 23.8581 192.836 25.5097 192.199 26.8694C191.561 28.2291 190.693 29.2662 189.594 29.9806C188.496 30.6951 187.251 31.0523 185.861 31.0523C184.847 31.0523 184.006 30.8833 183.337 30.5453C182.669 30.2073 182.131 29.8001 181.724 29.3238C181.325 28.8399 181.013 28.3828 180.791 27.9526H180.618V37.3785H176.446ZM180.537 21.8914C180.537 23.0361 180.699 24.0386 181.021 24.899C181.351 25.7594 181.824 26.4315 182.438 26.9155C183.061 27.3918 183.814 27.6299 184.697 27.6299C185.619 27.6299 186.391 27.3841 187.013 26.8925C187.635 26.3931 188.104 25.7133 188.419 24.8529C188.742 23.9848 188.903 22.9977 188.903 21.8914C188.903 20.7929 188.745 19.8173 188.43 18.9646C188.116 18.1119 187.647 17.4435 187.025 16.9596C186.402 16.4756 185.627 16.2336 184.697 16.2336C183.806 16.2336 183.049 16.4679 182.427 16.9365C181.805 17.4051 181.332 18.0619 181.01 18.907C180.695 19.752 180.537 20.7468 180.537 21.8914Z" fill="#BDBDBD"/>
<path d="M206.914 25.89L212.168 13.0417H215.533L208.377 30.7412H205.462L198.467 13.0417H201.797L206.914 25.89ZM200.749 13.0417V30.7412H196.727V13.0417H200.749ZM213.251 30.7412V13.0417H217.238V30.7412H213.251Z" fill="#BDBDBD"/>
<path d="M226.537 31.0984C225.416 31.0984 224.406 30.8987 223.507 30.4992C222.616 30.092 221.909 29.4928 221.387 28.7016C220.872 27.9103 220.614 26.9347 220.614 25.7747C220.614 24.7761 220.799 23.9502 221.168 23.2973C221.536 22.6443 222.039 22.1219 222.677 21.7301C223.315 21.3383 224.033 21.0426 224.832 20.8428C225.639 20.6354 226.472 20.4856 227.332 20.3934C228.369 20.2859 229.211 20.1899 229.856 20.1054C230.501 20.0132 230.97 19.8749 231.262 19.6905C231.561 19.4985 231.711 19.2027 231.711 18.8033V18.7341C231.711 17.8661 231.454 17.1939 230.939 16.7176C230.424 16.2413 229.683 16.0032 228.715 16.0032C227.693 16.0032 226.883 16.2259 226.284 16.6715C225.692 17.1171 225.293 17.6433 225.085 18.2502L221.191 17.697C221.498 16.6216 222.005 15.7228 222.712 15.0006C223.418 14.2709 224.283 13.7254 225.304 13.3644C226.326 12.9956 227.455 12.8113 228.692 12.8113C229.545 12.8113 230.394 12.9111 231.239 13.1109C232.084 13.3106 232.856 13.6409 233.555 14.1018C234.254 14.5551 234.815 15.1735 235.237 15.9571C235.667 16.7406 235.883 17.7201 235.883 18.8954V30.7412H231.872V28.3098H231.734C231.481 28.8015 231.123 29.2624 230.663 29.6926C230.209 30.1151 229.637 30.4569 228.946 30.7181C228.262 30.9716 227.459 31.0984 226.537 31.0984ZM227.62 28.0332C228.458 28.0332 229.184 27.8681 229.798 27.5378C230.413 27.1997 230.885 26.7542 231.216 26.2011C231.554 25.648 231.723 25.0449 231.723 24.392V22.3063C231.592 22.4138 231.369 22.5137 231.054 22.6059C230.747 22.6981 230.401 22.7787 230.017 22.8479C229.633 22.917 229.253 22.9785 228.876 23.0322C228.5 23.086 228.174 23.1321 227.897 23.1705C227.275 23.255 226.718 23.3933 226.226 23.5853C225.735 23.7774 225.347 24.0463 225.062 24.392C224.778 24.73 224.636 25.1678 224.636 25.7056C224.636 26.4738 224.916 27.0538 225.477 27.4456C226.038 27.8374 226.752 28.0332 227.62 28.0332Z" fill="#BDBDBD"/>
</svg>
